<svg class="sw" xmlns="http://www.w3.org/2000/svg" viewBox="0 0 1064 518" width="1064" height="518" role="img" aria-label="SOP-B3 Tranh chấp thanh toán (chargeback)">
<title>SOP-B3 Tranh chấp thanh toán (chargeback)</title><style>
.sw{font-family:Inter,-apple-system,"Segoe UI",sans-serif}
.sw .bg{fill:var(--panel,#fff)}
.sw .lane{fill:var(--panel,#fff);stroke:var(--line,#e5e5e7)}
.sw .lane.alt{fill:var(--bg,#fbfbfa)}
.sw .hdr{fill:var(--accent-soft,#f3efe9);stroke:var(--line,#e5e5e7)}
.sw .stg{fill:var(--accent-soft,#f3efe9);stroke:var(--line,#e5e5e7)}
.sw .sep{stroke:var(--line,#e5e5e7);stroke-dasharray:3 4}
.sw .t{fill:var(--ink,#1d1d1f);font-size:10.5px}
.sw .tb{fill:var(--ink,#1d1d1f);font-size:12px;font-weight:650}
.sw .tm{fill:var(--muted,#6e6e73);font-size:10px}
.sw .ts{fill:var(--accent,#6b5a45);font-size:10px;font-weight:600}
.sw .n{fill:var(--panel,#fff);stroke-width:1.4}
.sw .n.ext{stroke-dasharray:4 3}
.sw .n.cust{fill:var(--bg,#fbfbfa)}
.sw .n.term{fill:var(--accent-soft,#f3efe9)}
.sw .e{fill:none;stroke:var(--ink,#1d1d1f);stroke-width:1.2;opacity:.75}
.sw .e.info{stroke-dasharray:4 3;opacity:.55}
.sw .ah{fill:var(--ink,#1d1d1f);opacity:.75}
.sw .lbl{fill:var(--muted,#6e6e73);font-size:9.5px;font-weight:600}
.sw .lblbg{fill:var(--panel,#fff);opacity:.92}
.sw .tag{fill:var(--ink,#1d1d1f)}
.sw .tagt{fill:var(--bg,#fff);font-size:9.5px;font-weight:700}
.sw .x{fill:#fdecea;stroke:#c0392b;stroke-width:1}
.sw .xt{fill:#a5281b;font-size:9.5px;font-weight:600}
.sw .band{fill:none;stroke-width:1.2;stroke-dasharray:6 4;opacity:.8}
.sw .bandt{font-size:9.5px;font-weight:600}
@media (prefers-color-scheme:dark){.sw .x{fill:#3a1f1c}.sw .xt{fill:#f5a097}}
</style>
<defs><marker id="ah-b3" viewBox="0 0 10 10" refX="9" refY="5" markerWidth="7" markerHeight="7" orient="auto-start-reverse"><path class="ah" d="M0,0 L10,5 L0,10 z"/></marker></defs>
<rect class="bg" x="0" y="0" width="1064" height="518" rx="12"/>
<rect class="hdr" x="0" y="0" width="118" height="50"/>
<text class="tm" x="12" y="22">Vị trí ↓</text><text class="tm" x="12" y="38">Giai đoạn →</text>
<rect class="stg" x="118" y="0" width="134" height="50"/>
<text class="tb" x="128" y="21"><tspan class="ts">D1</tspan>  Cảnh báo</text>
<text class="tm" x="128" y="38">⏱ trong ngày</text>
<rect class="stg" x="252" y="0" width="134" height="50"/>
<text class="tb" x="262" y="21"><tspan class="ts">D2</tspan>  Liên hệ</text>
<text class="tm" x="262" y="38">⏱ gọi ≤ 24h</text>
<rect class="stg" x="386" y="0" width="268" height="50"/>
<text class="tb" x="396" y="21"><tspan class="ts">D3</tspan>  Quyết định</text>
<text class="tm" x="396" y="38">⏱ ≤ 48h</text>
<rect class="stg" x="654" y="0" width="134" height="50"/>
<text class="tb" x="664" y="21"><tspan class="ts">D4</tspan>  Hồ sơ</text>
<text class="tm" x="664" y="38">⏱ trước hạn cổng −3d</text>
<rect class="stg" x="788" y="0" width="268" height="50"/>
<text class="tb" x="798" y="21"><tspan class="ts">D5</tspan>  Kết quả · học</text>
<text class="tm" x="798" y="38">⏱ khi có phán quyết</text>
<rect class="lane" x="0" y="50" width="1056" height="92"/>
<rect x="0" y="50" width="5" height="92" fill="#8e8e93"/>
<text class="tb" x="14" y="93.0">Khách hàng</text>
<text class="tm" x="14" y="108.0">Customer</text>
<rect class="lane alt" x="0" y="142" width="1056" height="92"/>
<rect x="0" y="142" width="5" height="92" fill="#a1a1a6"/>
<text class="tb" x="14" y="185.0">Ngân hàng</text>
<text class="tm" x="14" y="200.0">Cổng thanh toán</text>
<rect class="lane" x="0" y="234" width="1056" height="92"/>
<rect x="0" y="234" width="5" height="92" fill="#2f6fb0"/>
<text class="tb" x="14" y="277.0">P4 · CX</text>
<text class="tm" x="14" y="292.0">Chăm sóc KH</text>
<rect class="lane alt" x="0" y="326" width="1056" height="92"/>
<rect x="0" y="326" width="5" height="92" fill="#6b5a45"/>
<text class="tb" x="14" y="369.0">P1 · OPS</text>
<text class="tm" x="14" y="384.0">Điều phối</text>
<rect class="lane" x="0" y="418" width="1056" height="92"/>
<rect x="0" y="418" width="5" height="92" fill="#7a4fa3"/>
<text class="tb" x="14" y="461.0">P6 · FIN</text>
<text class="tm" x="14" y="476.0">Tài chính</text>
<line class="sep" x1="252" y1="50" x2="252" y2="510"/>
<line class="sep" x1="386" y1="50" x2="386" y2="510"/>
<line class="sep" x1="654" y1="50" x2="654" y2="510"/>
<line class="sep" x1="788" y1="50" x2="788" y2="510"/>
<path class="e" d="M185.0,121.0 L185.0,163.0" marker-end="url(#ah-b3)"/>
<path class="e" d="M185.0,213.0 L185.0,439.0" marker-end="url(#ah-b3)"/>
<path class="e" d="M243.0,464.0 L319.0,464.0 L319.0,305.0" marker-end="url(#ah-b3)"/>
<path class="e" d="M377.0,280.0 L395.0,280.0" marker-end="url(#ah-b3)"/>
<path class="e" d="M453.0,309.0 L453.0,343.0" marker-end="url(#ah-b3)"/>
<rect class="lblbg" x="455.0" y="317.0" width="33.0" height="12" rx="3"/>
<text class="lbl" x="457.0" y="326.0" text-anchor="start">Không</text>
<path class="e" d="M453.0,401.0 L453.0,439.0" marker-end="url(#ah-b3)"/>
<rect class="lblbg" x="455.0" y="411.0" width="16.8" height="12" rx="3"/>
<text class="lbl" x="457.0" y="420.0" text-anchor="start">Có</text>
<path class="e" d="M511.0,280.0 L587.0,280.0 L587.0,439.0" marker-end="url(#ah-b3)"/>
<rect class="lblbg" x="540.6" y="266.0" width="16.8" height="12" rx="3"/>
<text class="lbl" x="549.0" y="275.0" text-anchor="middle">Có</text>
<path class="e" d="M511.0,372.0 L721.0,372.0 L721.0,439.0" marker-end="url(#ah-b3)"/>
<rect class="lblbg" x="599.5" y="358.0" width="33.0" height="12" rx="3"/>
<text class="lbl" x="616.0" y="367.0" text-anchor="middle">Không</text>
<path class="e" d="M779.0,464.0 L855.0,464.0 L855.0,213.0" marker-end="url(#ah-b3)"/>
<path class="e" d="M913.0,188.0 L989.0,188.0 L989.0,347.0" marker-end="url(#ah-b3)"/>
<rect class="n term" stroke="#8e8e93" x="127.0" y="71.0" width="116" height="50" rx="25.0"/>
<text class="t" x="185.0" y="94.0" text-anchor="middle" font-size="10.5" font-weight="600">Mở tranh chấp</text>
<text class="t" x="185.0" y="106.5" text-anchor="middle" font-size="10.5">với ngân hàng</text>
<rect class="n ext" stroke="#a1a1a6" x="127.0" y="163.0" width="116" height="50" rx="8"/>
<text class="t" x="185.0" y="186.0" text-anchor="middle" font-size="10.5" font-weight="600">Cổng TT báo</text>
<text class="t" x="185.0" y="198.5" text-anchor="middle" font-size="10.5">dispute + hạn nộp</text>
<rect class="n" stroke="#7a4fa3" x="127.0" y="439.0" width="116" height="50" rx="8"/>
<rect x="127.0" y="447.0" width="3" height="34" fill="#7a4fa3"/>
<text class="t" x="185.0" y="462.0" text-anchor="middle" font-size="10.5" font-weight="600">Ghi dispute</text>
<text class="t" x="185.0" y="474.5" text-anchor="middle" font-size="10.5">liên kết mã đơn</text>
<rect class="tag" x="221.0" y="432.0" width="28" height="14" rx="7"/>
<text class="tagt" x="235.0" y="442.5" text-anchor="middle">DSP</text>
<rect class="n" stroke="#2f6fb0" x="261.0" y="255.0" width="116" height="50" rx="8"/>
<rect x="261.0" y="263.0" width="3" height="34" fill="#2f6fb0"/>
<text class="t" x="319.0" y="271.8" text-anchor="middle" font-size="10.5" font-weight="600">Gọi KH ≤ 24h</text>
<text class="t" x="319.0" y="284.2" text-anchor="middle" font-size="10.5">lựa chọn đúng</text>
<text class="t" x="319.0" y="296.8" text-anchor="middle" font-size="10.5">bảng bồi thường</text>
<path class="n" stroke="#2f6fb0" d="M453.0,251.0 L511.0,280.0 L453.0,309.0 L395.0,280.0 z"/>
<text class="t" x="453.0" y="278.0" text-anchor="middle" font-size="10">KH rút</text>
<text class="t" x="453.0" y="290.0" text-anchor="middle" font-size="10">tranh chấp?</text>
<path class="n" stroke="#6b5a45" d="M453.0,343.0 L511.0,372.0 L453.0,401.0 L395.0,372.0 z"/>
<text class="t" x="453.0" y="370.0" text-anchor="middle" font-size="10">Lỗi thuộc</text>
<text class="t" x="453.0" y="382.0" text-anchor="middle" font-size="10">brand?</text>
<rect class="n" stroke="#7a4fa3" x="395.0" y="439.0" width="116" height="50" rx="8"/>
<rect x="395.0" y="447.0" width="3" height="34" fill="#7a4fa3"/>
<text class="t" x="453.0" y="462.0" text-anchor="middle" font-size="10.5" font-weight="600">Chấp nhận dispute</text>
<text class="t" x="453.0" y="474.5" text-anchor="middle" font-size="10.5">hoàn tiền</text>
<rect class="n" stroke="#7a4fa3" x="529.0" y="439.0" width="116" height="50" rx="8"/>
<rect x="529.0" y="447.0" width="3" height="34" fill="#7a4fa3"/>
<text class="t" x="587.0" y="455.8" text-anchor="middle" font-size="10.5" font-weight="600">Thực hiện</text>
<text class="t" x="587.0" y="468.2" text-anchor="middle" font-size="10.5">giải pháp</text>
<text class="t" x="587.0" y="480.8" text-anchor="middle" font-size="10.5">đã thỏa thuận</text>
<rect class="n" stroke="#7a4fa3" x="663.0" y="439.0" width="116" height="50" rx="8"/>
<rect x="663.0" y="447.0" width="3" height="34" fill="#7a4fa3"/>
<text class="t" x="721.0" y="455.8" text-anchor="middle" font-size="10.5" font-weight="600">Nộp hồ sơ</text>
<text class="t" x="721.0" y="468.2" text-anchor="middle" font-size="10.5">ETA đã hứa · tracking</text>
<text class="t" x="721.0" y="480.8" text-anchor="middle" font-size="10.5">POD · trao đổi</text>
<rect class="n ext" stroke="#a1a1a6" x="797.0" y="163.0" width="116" height="50" rx="8"/>
<text class="t" x="855.0" y="192.2" text-anchor="middle" font-size="10.5" font-weight="600">Phán quyết</text>
<rect class="n term" stroke="#6b5a45" x="931.0" y="347.0" width="116" height="50" rx="25.0"/>
<text class="t" x="989.0" y="370.0" text-anchor="middle" font-size="10.5" font-weight="600">Root cause</text>
<text class="t" x="989.0" y="382.5" text-anchor="middle" font-size="10.5">→ sửa SOP</text>
<rect class="x" x="237.8" y="230.0" width="162.4" height="14" rx="7"/>
<text class="xt" x="319.0" y="240.5" text-anchor="middle">Không gọi được → email + SMS</text>
</svg>