<svg class="sw" xmlns="http://www.w3.org/2000/svg" viewBox="0 0 1332 794" width="1332" height="794" role="img" aria-label="E0 Chuẩn bị sản phẩm: từ chọn mẫu tới mở bán">
<title>E0 Chuẩn bị sản phẩm: từ chọn mẫu tới mở bán</title><style>
.sw{font-family:Inter,-apple-system,"Segoe UI",sans-serif}
.sw .bg{fill:var(--panel,#fff)}
.sw .lane{fill:var(--panel,#fff);stroke:var(--line,#e5e5e7)}
.sw .lane.alt{fill:var(--bg,#fbfbfa)}
.sw .hdr{fill:var(--accent-soft,#f3efe9);stroke:var(--line,#e5e5e7)}
.sw .stg{fill:var(--accent-soft,#f3efe9);stroke:var(--line,#e5e5e7)}
.sw .sep{stroke:var(--line,#e5e5e7);stroke-dasharray:3 4}
.sw .t{fill:var(--ink,#1d1d1f);font-size:10.5px}
.sw .tb{fill:var(--ink,#1d1d1f);font-size:12px;font-weight:650}
.sw .tm{fill:var(--muted,#6e6e73);font-size:10px}
.sw .ts{fill:var(--accent,#6b5a45);font-size:10px;font-weight:600}
.sw .n{fill:var(--panel,#fff);stroke-width:1.4}
.sw .n.ext{stroke-dasharray:4 3}
.sw .n.cust{fill:var(--bg,#fbfbfa)}
.sw .n.term{fill:var(--accent-soft,#f3efe9)}
.sw .e{fill:none;stroke:var(--ink,#1d1d1f);stroke-width:1.2;opacity:.75}
.sw .e.info{stroke-dasharray:4 3;opacity:.55}
.sw .ah{fill:var(--ink,#1d1d1f);opacity:.75}
.sw .lbl{fill:var(--muted,#6e6e73);font-size:9.5px;font-weight:600}
.sw .lblbg{fill:var(--panel,#fff);opacity:.92}
.sw .tag{fill:var(--ink,#1d1d1f)}
.sw .tagt{fill:var(--bg,#fff);font-size:9.5px;font-weight:700}
.sw .x{fill:#fdecea;stroke:#c0392b;stroke-width:1}
.sw .xt{fill:#a5281b;font-size:9.5px;font-weight:600}
.sw .band{fill:none;stroke-width:1.2;stroke-dasharray:6 4;opacity:.8}
.sw .bandt{font-size:9.5px;font-weight:600}
@media (prefers-color-scheme:dark){.sw .x{fill:#3a1f1c}.sw .xt{fill:#f5a097}}
</style>
<defs><marker id="ah-e0" viewBox="0 0 10 10" refX="9" refY="5" markerWidth="7" markerHeight="7" orient="auto-start-reverse"><path class="ah" d="M0,0 L10,5 L0,10 z"/></marker></defs>
<rect class="bg" x="0" y="0" width="1332" height="794" rx="12"/>
<rect class="hdr" x="0" y="0" width="118" height="50"/>
<text class="tm" x="12" y="22">Vị trí ↓</text><text class="tm" x="12" y="38">Giai đoạn →</text>
<rect class="stg" x="118" y="0" width="134" height="50"/>
<text class="tb" x="128" y="21"><tspan class="ts">P1</tspan>  Chọn mẫu</text>
<text class="tm" x="128" y="38">⏱ theo Top 100</text>
<rect class="stg" x="252" y="0" width="268" height="50"/>
<text class="tb" x="262" y="21"><tspan class="ts">P2</tspan>  Đối chiếu NCC</text>
<text class="tm" x="262" y="38">⏱ 5 mẫu/ngày</text>
<rect class="stg" x="520" y="0" width="268" height="50"/>
<text class="tb" x="530" y="21"><tspan class="ts">P3</tspan>  Mẫu thật</text>
<text class="tm" x="530" y="38">⏱ HERO: 7–14 ngày</text>
<rect class="stg" x="788" y="0" width="268" height="50"/>
<text class="tb" x="798" y="21"><tspan class="ts">P4</tspan>  Giá về tới Úc</text>
<text class="tm" x="798" y="38">⏱ trước khi đăng</text>
<rect class="stg" x="1056" y="0" width="268" height="50"/>
<text class="tb" x="1066" y="21"><tspan class="ts">P5</tspan>  Đăng bán</text>
<text class="tm" x="1066" y="38">⏱ DRAFT → ACTIVE</text>
<rect class="lane" x="0" y="50" width="1324" height="92"/>
<rect x="0" y="50" width="5" height="92" fill="#1d1d1f"/>
<text class="tb" x="14" y="93.0">P0 · CEO</text>
<text class="tm" x="14" y="108.0">Duyệt cấp cao</text>
<rect class="lane alt" x="0" y="142" width="1324" height="92"/>
<rect x="0" y="142" width="5" height="92" fill="#b5562b"/>
<text class="tb" x="14" y="185.0">P5 · MKT</text>
<text class="tm" x="14" y="200.0">Marketing &amp; listing</text>
<rect class="lane" x="0" y="234" width="1324" height="92"/>
<rect x="0" y="234" width="5" height="92" fill="#2e7d4f"/>
<text class="tb" x="14" y="277.0">P2 · SRC</text>
<text class="tm" x="14" y="292.0">Mua hàng &amp; QC</text>
<rect class="lane alt" x="0" y="326" width="1324" height="92"/>
<rect x="0" y="326" width="5" height="92" fill="#a1a1a6"/>
<text class="tb" x="14" y="369.0">NCC / xưởng TQ</text>
<text class="tm" x="14" y="384.0">Taobao · 1688</text>
<rect class="lane" x="0" y="418" width="1324" height="92"/>
<rect x="0" y="418" width="5" height="92" fill="#0f7c80"/>
<text class="tb" x="14" y="461.0">P3 · LOG</text>
<text class="tm" x="14" y="476.0">Logistics &amp; HQ</text>
<rect class="lane alt" x="0" y="510" width="1324" height="92"/>
<rect x="0" y="510" width="5" height="92" fill="#a1a1a6"/>
<text class="tb" x="14" y="553.0">Forwarder</text>
<text class="tm" x="14" y="568.0">Hãng tàu · HQ xuất TQ</text>
<rect class="lane" x="0" y="602" width="1324" height="92"/>
<rect x="0" y="602" width="5" height="92" fill="#a1a1a6"/>
<text class="tb" x="14" y="645.0">Đại lý HQ Úc</text>
<text class="tm" x="14" y="660.0">Customs broker</text>
<rect class="lane alt" x="0" y="694" width="1324" height="92"/>
<rect x="0" y="694" width="5" height="92" fill="#7a4fa3"/>
<text class="tb" x="14" y="737.0">P6 · FIN</text>
<text class="tm" x="14" y="752.0">Tài chính</text>
<line class="sep" x1="252" y1="50" x2="252" y2="786"/>
<line class="sep" x1="520" y1="50" x2="520" y2="786"/>
<line class="sep" x1="788" y1="50" x2="788" y2="786"/>
<line class="sep" x1="1056" y1="50" x2="1056" y2="786"/>
<line class="band" stroke="#2e7d4f" x1="794" y1="318.0" x2="1318" y2="318.0"/>
<text class="bandt" fill="#2e7d4f" x="798" y="314.0">↻ Master SKU là nguồn duy nhất cho listing, nhãn, chứng từ</text>
<path class="e info" d="M185.0,163.0 L185.0,121.0" marker-end="url(#ah-e0)"/>
<path class="e" d="M243.0,96.0 L319.0,96.0 L319.0,255.0" marker-end="url(#ah-e0)"/>
<path class="e" d="M319.0,305.0 L319.0,347.0" marker-end="url(#ah-e0)"/>
<rect class="lblbg" x="321.0" y="317.0" width="49.2" height="12" rx="3"/>
<text class="lbl" x="323.0" y="326.0" text-anchor="start">hỏi spec</text>
<path class="e" d="M377.0,372.0 L453.0,372.0 L453.0,309.0" marker-end="url(#ah-e0)"/>
<path class="e" d="M377.0,280.0 L395.0,280.0" marker-end="url(#ah-e0)"/>
<path class="e" d="M511.0,280.0 L529.0,280.0" marker-end="url(#ah-e0)"/>
<rect class="lblbg" x="506.2" y="266.0" width="27.6" height="12" rx="3"/>
<text class="lbl" x="520.0" y="275.0" text-anchor="middle">Khớp</text>
<path class="e" d="M587.0,305.0 L587.0,347.0" marker-end="url(#ah-e0)"/>
<path class="e" d="M645.0,372.0 L721.0,372.0 L721.0,305.0" marker-end="url(#ah-e0)"/>
<path class="e" d="M645.0,280.0 L663.0,280.0" marker-end="url(#ah-e0)"/>
<path class="e" d="M779.0,280.0 L855.0,280.0 L855.0,439.0" marker-end="url(#ah-e0)"/>
<path class="e" d="M855.0,489.0 L855.0,531.0" marker-end="url(#ah-e0)"/>
<path class="e info" d="M855.0,581.0 L855.0,623.0" marker-end="url(#ah-e0)"/>
<path class="e" d="M913.0,648.0 L989.0,648.0 L989.0,715.0" marker-end="url(#ah-e0)"/>
<path class="e" d="M989.0,715.0 L989.0,125.0" marker-end="url(#ah-e0)"/>
<path class="e" d="M1047.0,96.0 L1123.0,96.0 L1123.0,163.0" marker-end="url(#ah-e0)"/>
<rect class="lblbg" x="1068.5" y="82.0" width="33.0" height="12" rx="3"/>
<text class="lbl" x="1085.0" y="91.0" text-anchor="middle">Duyệt</text>
<path class="e" d="M1181.0,188.0 L1199.0,188.0" marker-end="url(#ah-e0)"/>
<rect class="n term" stroke="#1d1d1f" x="127.0" y="71.0" width="116" height="50" rx="25.0"/>
<text class="t" x="185.0" y="87.8" text-anchor="middle" font-size="10.5" font-weight="600">Duyệt danh sách</text>
<text class="t" x="185.0" y="100.2" text-anchor="middle" font-size="10.5">mẫu mở bán</text>
<text class="t" x="185.0" y="112.8" text-anchor="middle" font-size="10.5">(HERO / CORE)</text>
<rect class="n" stroke="#b5562b" x="127.0" y="163.0" width="116" height="50" rx="8"/>
<rect x="127.0" y="171.0" width="3" height="34" fill="#b5562b"/>
<text class="t" x="185.0" y="179.8" text-anchor="middle" font-size="10.5" font-weight="600">Đề xuất mẫu</text>
<text class="t" x="185.0" y="192.2" text-anchor="middle" font-size="10.5">từ Top 100</text>
<text class="t" x="185.0" y="204.8" text-anchor="middle" font-size="10.5">+ nhu cầu thật</text>
<rect class="n" stroke="#2e7d4f" x="261.0" y="255.0" width="116" height="50" rx="8"/>
<rect x="261.0" y="263.0" width="3" height="34" fill="#2e7d4f"/>
<text class="t" x="319.0" y="271.8" text-anchor="middle" font-size="10.5" font-weight="600">Tìm 2 NCC/mẫu</text>
<text class="t" x="319.0" y="284.2" text-anchor="middle" font-size="10.5">bằng ảnh</text>
<text class="t" x="319.0" y="296.8" text-anchor="middle" font-size="10.5">ưu tiên NCC đã chấm</text>
<rect class="n ext" stroke="#a1a1a6" x="261.0" y="347.0" width="116" height="50" rx="8"/>
<text class="t" x="319.0" y="363.8" text-anchor="middle" font-size="10.5" font-weight="600">Báo bản vẽ W×D×H</text>
<text class="t" x="319.0" y="376.2" text-anchor="middle" font-size="10.5">vật liệu · số kiện</text>
<text class="t" x="319.0" y="388.8" text-anchor="middle" font-size="10.5">thời gian SX</text>
<path class="n" stroke="#2e7d4f" d="M453.0,251.0 L511.0,280.0 L453.0,309.0 L395.0,280.0 z"/>
<text class="t" x="453.0" y="278.0" text-anchor="middle" font-size="10">Khớp ±2 cm?</text>
<text class="t" x="453.0" y="290.0" text-anchor="middle" font-size="10">màu đúng mã?</text>
<rect class="n" stroke="#2e7d4f" x="529.0" y="255.0" width="116" height="50" rx="8"/>
<rect x="529.0" y="263.0" width="3" height="34" fill="#2e7d4f"/>
<text class="t" x="587.0" y="271.8" text-anchor="middle" font-size="10.5" font-weight="600">Đặt mẫu thật</text>
<text class="t" x="587.0" y="284.2" text-anchor="middle" font-size="10.5">(HERO)</text>
<text class="t" x="587.0" y="296.8" text-anchor="middle" font-size="10.5">+ yêu cầu đóng gói</text>
<rect class="n ext" stroke="#a1a1a6" x="529.0" y="347.0" width="116" height="50" rx="8"/>
<text class="t" x="587.0" y="363.8" text-anchor="middle" font-size="10.5" font-weight="600">Gửi mẫu</text>
<text class="t" x="587.0" y="376.2" text-anchor="middle" font-size="10.5">ảnh/video</text>
<text class="t" x="587.0" y="388.8" text-anchor="middle" font-size="10.5">đóng kiện</text>
<rect class="n" stroke="#2e7d4f" x="663.0" y="255.0" width="116" height="50" rx="8"/>
<rect x="663.0" y="263.0" width="3" height="34" fill="#2e7d4f"/>
<text class="t" x="721.0" y="271.8" text-anchor="middle" font-size="10.5" font-weight="600">Đo · chụp màu</text>
<text class="t" x="721.0" y="284.2" text-anchor="middle" font-size="10.5">golden sample</text>
<text class="t" x="721.0" y="296.8" text-anchor="middle" font-size="10.5">ghi Master SKU</text>
<rect class="tag" x="727.0" y="248.0" width="58" height="14" rx="7"/>
<text class="tagt" x="756.0" y="258.5" text-anchor="middle">VERIFIED</text>
<rect class="n" stroke="#0f7c80" x="797.0" y="439.0" width="116" height="50" rx="8"/>
<rect x="797.0" y="447.0" width="3" height="34" fill="#0f7c80"/>
<text class="t" x="855.0" y="455.8" text-anchor="middle" font-size="10.5" font-weight="600">Xin báo giá</text>
<text class="t" x="855.0" y="468.2" text-anchor="middle" font-size="10.5">cước theo CBM</text>
<text class="t" x="855.0" y="480.8" text-anchor="middle" font-size="10.5">+ phí kho gom</text>
<rect class="n ext" stroke="#a1a1a6" x="797.0" y="531.0" width="116" height="50" rx="8"/>
<text class="t" x="855.0" y="547.8" text-anchor="middle" font-size="10.5" font-weight="600">Báo giá LCL</text>
<text class="t" x="855.0" y="560.2" text-anchor="middle" font-size="10.5">lịch tàu</text>
<text class="t" x="855.0" y="572.8" text-anchor="middle" font-size="10.5">thời gian chạy</text>
<rect class="n ext" stroke="#a1a1a6" x="797.0" y="623.0" width="116" height="50" rx="8"/>
<text class="t" x="855.0" y="639.8" text-anchor="middle" font-size="10.5" font-weight="600">Xác nhận mã HS</text>
<text class="t" x="855.0" y="652.2" text-anchor="middle" font-size="10.5">thuế · GST · kiểm dịch</text>
<text class="t" x="855.0" y="664.8" text-anchor="middle" font-size="10.5">gỗ / bao bì</text>
<rect class="n" stroke="#7a4fa3" x="931.0" y="715.0" width="116" height="50" rx="8"/>
<rect x="931.0" y="723.0" width="3" height="34" fill="#7a4fa3"/>
<text class="t" x="989.0" y="731.8" text-anchor="middle" font-size="10.5" font-weight="600">Tính landed cost</text>
<text class="t" x="989.0" y="744.2" text-anchor="middle" font-size="10.5">giá bán AUD</text>
<text class="t" x="989.0" y="756.8" text-anchor="middle" font-size="10.5">biên ròng ≥ 30%</text>
<path class="n" stroke="#1d1d1f" d="M989.0,67.0 L1047.0,96.0 L989.0,125.0 L931.0,96.0 z"/>
<text class="t" x="989.0" y="100.0" text-anchor="middle" font-size="10">Duyệt giá?</text>
<rect class="n" stroke="#b5562b" x="1065.0" y="163.0" width="116" height="50" rx="8"/>
<rect x="1065.0" y="171.0" width="3" height="34" fill="#b5562b"/>
<text class="t" x="1123.0" y="179.8" text-anchor="middle" font-size="10.5" font-weight="600">Viết listing EN</text>
<text class="t" x="1123.0" y="192.2" text-anchor="middle" font-size="10.5">từ Master SKU</text>
<text class="t" x="1123.0" y="204.8" text-anchor="middle" font-size="10.5">ảnh được phép dùng</text>
<rect class="n term" stroke="#b5562b" x="1199.0" y="163.0" width="116" height="50" rx="25.0"/>
<text class="t" x="1257.0" y="186.0" text-anchor="middle" font-size="10.5" font-weight="600">Duyệt 5 câu</text>
<text class="t" x="1257.0" y="198.5" text-anchor="middle" font-size="10.5">+ bật bán</text>
<rect class="tag" x="1275.0" y="156.0" width="46" height="14" rx="7"/>
<text class="tagt" x="1298.0" y="166.5" text-anchor="middle">ACTIVE</text>
<rect class="x" x="358.6" y="313.0" width="188.9" height="14" rx="7"/>
<text class="xt" x="453.0" y="323.5" text-anchor="middle">Lệch &gt; 2 cm → mẫu khác / NCC khác</text>
<rect class="x" x="663.6" y="230.0" width="114.7" height="14" rx="7"/>
<text class="xt" x="721.0" y="240.5" text-anchor="middle">Mẫu trượt → đổi NCC</text>
<rect class="x" x="905.1" y="129.0" width="167.7" height="14" rx="7"/>
<text class="xt" x="989.0" y="139.5" text-anchor="middle">Biên &lt; 30% → bỏ mẫu / đổi NCC</text>
</svg>