<svg class="sw" xmlns="http://www.w3.org/2000/svg" viewBox="0 0 1332 702" width="1332" height="702" role="img" aria-label="SOP-B1 Xử lý case hậu mãi: tiếp nhận tới đóng case" xmlns:c2pa="http://c2pa.org/manifest"><metadata><c2pa:manifest>AAAWgmp1bWIAAAAeanVtZGMycGEAEQAQgAAAqgA4m3EDYzJwYQAAABZcanVtYgAAAEdqdW1kYzJtYQARABCAAACqADibcQN1cm46YzJwYTo1NzJhZTNiOC1iZjEzLTQyMWMtYWEwNS02M2ZlODNkMzc3YmMAAAADl2p1bWIAAAApanVtZGMyYXMAEQAQgAAAqgA4m3EDYzJwYS5hc3NlcnRpb25zAAAAALxqdW1iAAAARGp1bWRjYm9yABEAEIAAAKoAOJtxE2MycGEuaW5ncmVkaWVudC52MwAAAAAYYzJzaJmZmQbh+zdSwAcfjd/GdakAAABwY2JvcqNpZGM6Zm9ybWF0bWltYWdlL3N2Zyt4bWxqaW5zdGFuY2VJRHgseG1wOmlpZDpiZGM2M2NlZC1lMjk4LTQ0MDEtYjk5Ni1iNmEyMjg4NGFlMTdscmVsYXRpb25zaGlwaHBhcmVudE9mAAAB4mp1bWIAAABBanVtZGNib3IAEQAQgAAAqgA4m3ETYzJwYS5hY3Rpb25zLnYyAAAAABhjMnNoLFnoEDjBE25aOr6C+ZHOyAAAAZljYm9yomdhY3Rpb25zgqJmYWN0aW9ua2MycGEub3BlbmVkanBhcmFtZXRlcnOha2luZ3JlZGllbnRzgaJjdXJseC1zZWxmI2p1bWJmPWMycGEuYXNzZXJ0aW9ucy9jMnBhLmluZ3JlZGllbnQudjNkaGFzaFggBjxKW7dHlCxkVBUZ5XuMIxfDVyDbAKfIEHZ68FScBaukZmFjdGlvbngdY29tLmFudGhyb3BpYy5jbGF1ZGUucHJvdmlkZWRqcGFyYW1ldGVyc6F4H2NvbS5hbnRocm9waWMub3JpZ2luLWNvbmZpZGVuY2VndW5rbm93bmtkZXNjcmlwdGlvbnhmQ2xhdWRlIHByb3ZpZGVkIHRoaXMgZmlsZSBhdCB0aGUgcmVxdWVzdCBvZiBhIHVzZXIgYW5kIG1heSBoYXZlIGNyZWF0ZWQgb3IgbW9kaWZpZWQgdGhlIGZpbGUgY29udGVudHMubXNvZnR3YXJlQWdlbnShZG5hbWVmQ2xhdWRlcmFsbEFjdGlvbnNJbmNsdWRlZPUAAADIanVtYgAAAEBqdW1kY2JvcgARABCAAACqADibcRNjMnBhLmhhc2guZGF0YQAAAAAYYzJzaNU+ooYJMpEVHes6G2MhSdsAAACAY2JvcqVjYWxnZnNoYTI1NmNwYWRNAAAAAAAAAAAAAAAAAGRoYXNoWCCTFtMuw6vT4uOIQ1GHLoMPaCbtE5COK6AsrUTR8xzLQ2RuYW1lbmp1bWJmIG1hbmlmZXN0amV4Y2x1c2lvbnOBomVzdGFydBj8Zmxlbmd0aBkeBAAAAj5qdW1iAAAAJ2p1bWRjMmNsABEAEIAAAKoAOJtxA2MycGEuY2xhaW0udjIAAAACD2Nib3KlY2FsZ2ZzaGEyNTZpc2lnbmF0dXJleE1zZWxmI2p1bWJmPS9jMnBhL3VybjpjMnBhOjU3MmFlM2I4LWJmMTMtNDIxYy1hYTA1LTYzZmU4M2QzNzdiYy9jMnBhLnNpZ25hdHVyZWppbnN0YW5jZUlEeCx4bXA6aWlkOjk4ODUyOTUwLTAxODQtNDA3ZS05M2YyLTMxNzlhNTdhYTVmN3JjcmVhdGVkX2Fzc2VydGlvbnODomN1cmx4LXNlbGYjanVtYmY9YzJwYS5hc3NlcnRpb25zL2MycGEuaW5ncmVkaWVudC52M2RoYXNoWCAGPEpbt0eULGRUFRnle4wjF8NXINsAp8gQdnrwVJwFq6JjdXJseCpzZWxmI2p1bWJmPWMycGEuYXNzZXJ0aW9ucy9jMnBhLmFjdGlvbnMudjJkaGFzaFggMKQBNazwkhXL/hwFCHdxPUak5qm2RIwZdiK5ypKAtOWiY3VybHgpc2VsZiNqdW1iZj1jMnBhLmFzc2VydGlvbnMvYzJwYS5oYXNoLmRhdGFkaGFzaFggXxwFZQRVkBJNBtrNgvs01KNjPQkYDa/nmUtaJpjoWnR0Y2xhaW1fZ2VuZXJhdG9yX2luZm+jZG5hbWVvQW50aHJvcGljIEZpbGVzZ3ZlcnNpb25lMS4wLjBrc3BlY1ZlcnNpb25lMi40LjAAABA4anVtYgAAAChqdW1kYzJjcwARABCAAACqADibcQNjMnBhLnNpZ25hdHVyZQAAABAIY2JvctKEWQISogEmGCFZAgowggIGMIIBjaADAgECAhRA5aAK7sI50L64g/oGQgU9Z1UTADAKBggqhkjOPQQDAzBJMRcwFQYDVQQKEw5BbnRocm9waWMsIFBCQzEuMCwGA1UEAxMlQW50aHJvcGljIENvbnRlbnQgQ3JlZGVudGlhbHMgUm9vdCBDQTAeFw0yNjA4MDcxODQzNTZaFw0yODA4MDYxOTQzNTZaMEQxFzAVBgNVBAoTDkFudGhyb3BpYywgUEJDMSkwJwYDVQQDEyBBbnRocm9waWMgQ2xhdWRlIENvbnRlbnQgU2lnbmluZzBZMBMGByqGSM49AgEGCCqGSM49AwEHA0IABJh6CmvLUBgFFNU0vUKlOVtE6djd17L5SuwX0LemFisBM3dkd/3cyjxFA3Qo5S46fX0/ihY0VZ7mfb9KF703t5OjWDBWMA4GA1UdDwEB/wQEAwIHgDAVBgNVHSUEDjAMBgorBgEEAYPoXgIBMAwGA1UdEwEB/wQCMAAwHwYDVR0jBBgwFoAUzlHiBIFOZFsj+OPEz5o+nMHXXMIwCgYIKoZIzj0EAwMDZwAwZAIwMXMdFJ4BetLLVY7ORuE9noqbbAZOZn/aArXyTwFAZfKrPzxF2vPoJNf1+UCdg1XGAjBwX1zd9WGqYkqmL5SFqw1QySjr1zJfpJM9+1rdDwSPLMOPOjKuiXjoU/pUUeG9RwmhY3BhZFkNngAAAAAAAAAAAAAAAAAAAAAAAAAAAAAAAAAAAAAAAAAAAAAAAAAAAAAAAAAAAAAAAAAAAAAAAAAAAAAAAAAAAAAAAAAAAAAAAAAAAAAAAAAAAAAAAAAAAAAAAAAAAAAAAAAAAAAAAAAAAAAAAAAAAAAAAAAAAAAAAAAAAAAAAAAAAAAAAAAAAAAAAAAAAAAAAAAAAAAAAAAAAAAAAAAAAAAAAAAAAAAAAAAAAAAAAAAAAAAAAAAAAAAAAAAAAAAAAAAAAAAAAAAAAAAAAAAAAAAAAAAAAAAAAAAAAAAAAAAAAAAAAAAAAAAAAAAAAAAAAAAAAAAAAAAAAAAAAAAAAAAAAAAAAAAAAAAAAAAAAAAAAAAAAAAAAAAAAAAAAAAAAAAAAAAAAAAAAAAAAAAAAAAAAAAAAAAAAAAAAAAAAAAAAAAAAAAAAAAAAAAAAAAAAAAAAAAAAAAAAAAAAAAAAAAAAAAAAAAAAAAAAAAAAAAAAAAAAAAAAAAAAAAAAAAAAAAAAAAAAAAAAAAAAAAAAAAAAAAAAAAAAAAAAAAAAAAAAAAAAAAAAAAAAAAAAAAAAAAAAAAAAAAAAAAAAAAAAAAAAAAAAAAAAAAAAAAAAAAAAAAAAAAAAAAAAAAAAAAAAAAAAAAAAAAAAAAAAAAAAAAAAAAAAAAAAAAAAAAAAAAAAAAAAAAAAAAAAAAAAAAAAAAAAAAAAAAAAAAAAAAAAAAAAAAAAAAAAAAAAAAAAAAAAAAAAAAAAAAAAAAAAAAAAAAAAAAAAAAAAAAAAAAAAAAAAAAAAAAAAAAAAAAAAAAAAAAAAAAAAAAAAAAAAAAAAAAAAAAAAAAAAAAAAAAAAAAAAAAAAAAAAAAAAAAAAAAAAAAAAAAAAAAAAAAAAAAAAAAAAAAAAAAAAAAAAAAAAAAAAAAAAAAAAAAAAAAAAAAAAAAAAAAAAAAAAAAAAAAAAAAAAAAAAAAAAAAAAAAAAAAAAAAAAAAAAAAAAAAAAAAAAAAAAAAAAAAAAAAAAAAAAAAAAAAAAAAAAAAAAAAAAAAAAAAAAAAAAAAAAAAAAAAAAAAAAAAAAAAAAAAAAAAAAAAAAAAAAAAAAAAAAAAAAAAAAAAAAAAAAAAAAAAAAAAAAAAAAAAAAAAAAAAAAAAAAAAAAAAAAAAAAAAAAAAAAAAAAAAAAAAAAAAAAAAAAAAAAAAAAAAAAAAAAAAAAAAAAAAAAAAAAAAAAAAAAAAAAAAAAAAAAAAAAAAAAAAAAAAAAAAAAAAAAAAAAAAAAAAAAAAAAAAAAAAAAAAAAAAAAAAAAAAAAAAAAAAAAAAAAAAAAAAAAAAAAAAAAAAAAAAAAAAAAAAAAAAAAAAAAAAAAAAAAAAAAAAAAAAAAAAAAAAAAAAAAAAAAAAAAAAAAAAAAAAAAAAAAAAAAAAAAAAAAAAAAAAAAAAAAAAAAAAAAAAAAAAAAAAAAAAAAAAAAAAAAAAAAAAAAAAAAAAAAAAAAAAAAAAAAAAAAAAAAAAAAAAAAAAAAAAAAAAAAAAAAAAAAAAAAAAAAAAAAAAAAAAAAAAAAAAAAAAAAAAAAAAAAAAAAAAAAAAAAAAAAAAAAAAAAAAAAAAAAAAAAAAAAAAAAAAAAAAAAAAAAAAAAAAAAAAAAAAAAAAAAAAAAAAAAAAAAAAAAAAAAAAAAAAAAAAAAAAAAAAAAAAAAAAAAAAAAAAAAAAAAAAAAAAAAAAAAAAAAAAAAAAAAAAAAAAAAAAAAAAAAAAAAAAAAAAAAAAAAAAAAAAAAAAAAAAAAAAAAAAAAAAAAAAAAAAAAAAAAAAAAAAAAAAAAAAAAAAAAAAAAAAAAAAAAAAAAAAAAAAAAAAAAAAAAAAAAAAAAAAAAAAAAAAAAAAAAAAAAAAAAAAAAAAAAAAAAAAAAAAAAAAAAAAAAAAAAAAAAAAAAAAAAAAAAAAAAAAAAAAAAAAAAAAAAAAAAAAAAAAAAAAAAAAAAAAAAAAAAAAAAAAAAAAAAAAAAAAAAAAAAAAAAAAAAAAAAAAAAAAAAAAAAAAAAAAAAAAAAAAAAAAAAAAAAAAAAAAAAAAAAAAAAAAAAAAAAAAAAAAAAAAAAAAAAAAAAAAAAAAAAAAAAAAAAAAAAAAAAAAAAAAAAAAAAAAAAAAAAAAAAAAAAAAAAAAAAAAAAAAAAAAAAAAAAAAAAAAAAAAAAAAAAAAAAAAAAAAAAAAAAAAAAAAAAAAAAAAAAAAAAAAAAAAAAAAAAAAAAAAAAAAAAAAAAAAAAAAAAAAAAAAAAAAAAAAAAAAAAAAAAAAAAAAAAAAAAAAAAAAAAAAAAAAAAAAAAAAAAAAAAAAAAAAAAAAAAAAAAAAAAAAAAAAAAAAAAAAAAAAAAAAAAAAAAAAAAAAAAAAAAAAAAAAAAAAAAAAAAAAAAAAAAAAAAAAAAAAAAAAAAAAAAAAAAAAAAAAAAAAAAAAAAAAAAAAAAAAAAAAAAAAAAAAAAAAAAAAAAAAAAAAAAAAAAAAAAAAAAAAAAAAAAAAAAAAAAAAAAAAAAAAAAAAAAAAAAAAAAAAAAAAAAAAAAAAAAAAAAAAAAAAAAAAAAAAAAAAAAAAAAAAAAAAAAAAAAAAAAAAAAAAAAAAAAAAAAAAAAAAAAAAAAAAAAAAAAAAAAAAAAAAAAAAAAAAAAAAAAAAAAAAAAAAAAAAAAAAAAAAAAAAAAAAAAAAAAAAAAAAAAAAAAAAAAAAAAAAAAAAAAAAAAAAAAAAAAAAAAAAAAAAAAAAAAAAAAAAAAAAAAAAAAAAAAAAAAAAAAAAAAAAAAAAAAAAAAAAAAAAAAAAAAAAAAAAAAAAAAAAAAAAAAAAAAAAAAAAAAAAAAAAAAAAAAAAAAAAAAAAAAAAAAAAAAAAAAAAAAAAAAAAAAAAAAAAAAAAAAAAAAAAAAAAAAAAAAAAAAAAAAAAAAAAAAAAAAAAAAAAAAAAAAAAAAAAAAAAAAAAAAAAAAAAAAAAAAAAAAAAAAAAAAAAAAAAAAAAAAAAAAAAAAAAAAAAAAAAAAAAAAAAAAAAAAAAAAAAAAAAAAAAAAAAAAAAAAAAAAAAAAAAAAAAAAAAAAAAAAAAAAAAAAAAAAAAAAAAAAAAAAAAAAAAAAAAAAAAAAAAAAAAAAAAAAAAAAAAAAAAAAAAAAAAAAAAAAAAAAAAAAAAAAAAAAAAAAAAAAAAAAAAAAAAAAAAAAAAAAAAAAAAAAAAAAAAAAAAAAAAAAAAAAAAAAAAAAAAAAAAAAAAAAAAAAAAAAAAAAAAAAAAAAAAAAAAAAAAAAAAAAAAAAAAAAAAAAAAAAAAAAAAAAAAAAAAAAAAAAAAAAAAAAAAAAAAAAAAAAAAAAAAAAAAAAAAAAAAAAAAAAAAAAAAAAAAAAAAAAAAAAAAAAAAAAAAAAAAAAAAAAAAAAAAAAAAAAAAAAAAAAAAAAAAAAAAAAAAAAAAAAAAAAAAAAAAAAAAAAAAAAAAAAAAAAAAAAAAAAAAAAAAAAAAAAAAAAAAAAAAAAAAAAAAAAAAAAAAAAAAAAAAAAAAAAAAAAAAAAAAAAAAAAAAAAAAAAAAAAAAAAAAAAAAAAAAAAAAAAAAAAAAAAAAAAAAAAAAAAAAAAAAAAAAAAAAAAAAAAAAAAAAAAAAAAAAAAAAAAAAAAAAAAAAAAAAAAAAAAAAAAAAAAAAAAAAAAAAAAAAAAAAAAAAAAAAAAAAAAAAAAAAAAAAAAAAAAAAAAAAAAAAAAAAAAAAAAAAAAAAAAAAAAAAAAAAAAAAAAAAAAAAAAAAAAAAAAAAAAAAAAAAAAAAAAAAAAAAAAAAAAAAAAAAAAAAAAAAAAAAAAAAAAAAAAAAAAAAAAAAAAAAAAAAAAAAAAAAAAAAAAAAAAAAAAAAAAAAAAAAAAAAAAAAAAAAAAAAAAAAAAAAAAAAAAAAAAAAAAAAAAAAAAAAAAAAAAAAAAAAAAAAAAAAAAAAAAAAAAAAAAAAAAAAAAAAAAAAAAAAAAAAAAAAAAAAAAAAAAAAAAAAAAAAAAAAAAAAAAAAAAAAAAAAAAAAAAAAAAAAAAAAAAAAAAAAAAAAAAAAAAAAAAAAAAAAAAAAAAAAAAAAAAAAAAAAAAAAAAAAAAAAAAAAAAAAAAAAAAAAAAAAAAAAAAAAAAAAAAAAAAAAAAAAAAAAAAAAAAAAAAAAAAAAAAAAAAAAAAAAAAAAAAAAAAAAAAAAAAAAAAAAAAAAAAAAAAAAAAAAAAAAAAAAAAAAAAAAAAAAAAAAAAAAAAAAAAAAAAAAAAAAAAAAAAAAAAAAAAAAAAAAAAAAAAAAAAAAAAAAAAAAAAAAAAAAAAAAAAAAAAAAAAAAAAAAAAAAAAAAAAAAAAAAAAAAAAAAAAAAAAAAAAAAAAAAAAAAAAAAAAAAAAAAAAAAAAAAAAAAAAAAAAAAAAAAAAAAAAAAAAAAAAAAAAAAAAAAAAAAAAAAAAAAAAAAAAAAAAAAAAAAAAAAAAAAAAAAAAAAAAAAAAAAAAAAAAAAAAAAAAAAAAAAAAAAAAAAAAAAAAAAAAAAAAAAAAAAAAAAAAAAAAAAAAAAAAAAAAAAAAAAAAAAAAAAAAAAAAAAAAAAAAAAAAAAAAAAAAAAAAAAAAAAAAAAAAAAAAAAAAAAAAAAAAAAAAAAAAPZYQIQ9Ol4Kb/HmPMc+y8/fxXvbJzzO2gyOaEXcfMR4qJN9stHV/WrjmM5GMktzLi/H7ryRJSrhWcR5PCFqftio6cw=</c2pa:manifest></metadata>
<title>SOP-B1 Xử lý case hậu mãi: tiếp nhận tới đóng case</title><style>
.sw{font-family:Inter,-apple-system,"Segoe UI",sans-serif}
.sw .bg{fill:var(--panel,#fff)}
.sw .lane{fill:var(--panel,#fff);stroke:var(--line,#e5e5e7)}
.sw .lane.alt{fill:var(--bg,#fbfbfa)}
.sw .hdr{fill:var(--accent-soft,#f3efe9);stroke:var(--line,#e5e5e7)}
.sw .stg{fill:var(--accent-soft,#f3efe9);stroke:var(--line,#e5e5e7)}
.sw .sep{stroke:var(--line,#e5e5e7);stroke-dasharray:3 4}
.sw .t{fill:var(--ink,#1d1d1f);font-size:10.5px}
.sw .tb{fill:var(--ink,#1d1d1f);font-size:12px;font-weight:650}
.sw .tm{fill:var(--muted,#6e6e73);font-size:10px}
.sw .ts{fill:var(--accent,#6b5a45);font-size:10px;font-weight:600}
.sw .n{fill:var(--panel,#fff);stroke-width:1.4}
.sw .n.ext{stroke-dasharray:4 3}
.sw .n.cust{fill:var(--bg,#fbfbfa)}
.sw .n.term{fill:var(--accent-soft,#f3efe9)}
.sw .e{fill:none;stroke:var(--ink,#1d1d1f);stroke-width:1.2;opacity:.75}
.sw .e.info{stroke-dasharray:4 3;opacity:.55}
.sw .ah{fill:var(--ink,#1d1d1f);opacity:.75}
.sw .lbl{fill:var(--muted,#6e6e73);font-size:9.5px;font-weight:600}
.sw .lblbg{fill:var(--panel,#fff);opacity:.92}
.sw .tag{fill:var(--ink,#1d1d1f)}
.sw .tagt{fill:var(--bg,#fff);font-size:9.5px;font-weight:700}
.sw .x{fill:#fdecea;stroke:#c0392b;stroke-width:1}
.sw .xt{fill:#a5281b;font-size:9.5px;font-weight:600}
.sw .band{fill:none;stroke-width:1.2;stroke-dasharray:6 4;opacity:.8}
.sw .bandt{font-size:9.5px;font-weight:600}
@media (prefers-color-scheme:dark){.sw .x{fill:#3a1f1c}.sw .xt{fill:#f5a097}}
</style>
<defs><marker id="ah-b1" viewBox="0 0 10 10" refX="9" refY="5" markerWidth="7" markerHeight="7" orient="auto-start-reverse"><path class="ah" d="M0,0 L10,5 L0,10 z"/></marker></defs>
<rect class="bg" x="0" y="0" width="1332" height="702" rx="12"/>
<rect class="hdr" x="0" y="0" width="118" height="50"/>
<text class="tm" x="12" y="22">Vị trí ↓</text><text class="tm" x="12" y="38">Giai đoạn →</text>
<rect class="stg" x="118" y="0" width="134" height="50"/>
<text class="tb" x="128" y="21"><tspan class="ts">B1</tspan>  Tiếp nhận</text>
<text class="tm" x="128" y="38">⏱ phản hồi ≤ 4h LV</text>
<rect class="stg" x="252" y="0" width="134" height="50"/>
<text class="tb" x="262" y="21"><tspan class="ts">B2</tspan>  Bằng chứng</text>
<text class="tm" x="262" y="38">⏱ KH gửi ≤ 7 ngày</text>
<rect class="stg" x="386" y="0" width="268" height="50"/>
<text class="tb" x="396" y="21"><tspan class="ts">B3</tspan>  Duyệt theo mức</text>
<text class="tm" x="396" y="38">⏱ ≤ 24h sau đủ chứng cứ</text>
<rect class="stg" x="654" y="0" width="134" height="50"/>
<text class="tb" x="664" y="21"><tspan class="ts">B4</tspan>  Đề xuất</text>
<text class="tm" x="664" y="38">⏱ KH chọn</text>
<rect class="stg" x="788" y="0" width="268" height="50"/>
<text class="tb" x="798" y="21"><tspan class="ts">B5</tspan>  Thực thi</text>
<text class="tm" x="798" y="38">⏱ gửi bù ≤ 5d · hoàn ≤ 7d LV</text>
<rect class="stg" x="1056" y="0" width="134" height="50"/>
<text class="tb" x="1066" y="21"><tspan class="ts">B6</tspan>  Truy đòi</text>
<text class="tm" x="1066" y="38">⏱ claim ≤ 48h</text>
<rect class="stg" x="1190" y="0" width="134" height="50"/>
<text class="tb" x="1200" y="21"><tspan class="ts">B7</tspan>  Đóng · học</text>
<text class="tm" x="1200" y="38">⏱ review thứ Sáu</text>
<rect class="lane" x="0" y="50" width="1324" height="92"/>
<rect x="0" y="50" width="5" height="92" fill="#8e8e93"/>
<text class="tb" x="14" y="93.0">Khách hàng</text>
<text class="tm" x="14" y="108.0">Customer</text>
<rect class="lane alt" x="0" y="142" width="1324" height="92"/>
<rect x="0" y="142" width="5" height="92" fill="#2f6fb0"/>
<text class="tb" x="14" y="185.0">P4 · CX</text>
<text class="tm" x="14" y="200.0">Chăm sóc KH</text>
<rect class="lane" x="0" y="234" width="1324" height="92"/>
<rect x="0" y="234" width="5" height="92" fill="#6b5a45"/>
<text class="tb" x="14" y="277.0">P1 · OPS</text>
<text class="tm" x="14" y="292.0">Điều phối</text>
<rect class="lane alt" x="0" y="326" width="1324" height="92"/>
<rect x="0" y="326" width="5" height="92" fill="#1d1d1f"/>
<text class="tb" x="14" y="369.0">P0 · CEO</text>
<text class="tm" x="14" y="384.0">Duyệt cấp cao</text>
<rect class="lane" x="0" y="418" width="1324" height="92"/>
<rect x="0" y="418" width="5" height="92" fill="#2e7d4f"/>
<text class="tb" x="14" y="461.0">P2 · SRC</text>
<text class="tm" x="14" y="476.0">Mua hàng &amp; QC</text>
<rect class="lane alt" x="0" y="510" width="1324" height="92"/>
<rect x="0" y="510" width="5" height="92" fill="#7a4fa3"/>
<text class="tb" x="14" y="553.0">P6 · FIN</text>
<text class="tm" x="14" y="568.0">Tài chính</text>
<rect class="lane" x="0" y="602" width="1324" height="92"/>
<rect x="0" y="602" width="5" height="92" fill="#a1a1a6"/>
<text class="tb" x="14" y="645.0">Đối tác</text>
<text class="tm" x="14" y="660.0">NCC · kho · hãng</text>
<line class="sep" x1="252" y1="50" x2="252" y2="694"/>
<line class="sep" x1="386" y1="50" x2="386" y2="694"/>
<line class="sep" x1="654" y1="50" x2="654" y2="694"/>
<line class="sep" x1="788" y1="50" x2="788" y2="694"/>
<line class="sep" x1="1056" y1="50" x2="1056" y2="694"/>
<line class="sep" x1="1190" y1="50" x2="1190" y2="694"/>
<path class="e" d="M185.0,121.0 L185.0,163.0" marker-end="url(#ah-b1)"/>
<path class="e" d="M243.0,188.0 L261.0,188.0" marker-end="url(#ah-b1)"/>
<path class="e info" d="M319.0,163.0 L319.0,121.0" marker-end="url(#ah-b1)"/>
<path class="e" d="M377.0,96.0 L453.0,96.0 L453.0,159.0" marker-end="url(#ah-b1)"/>
<path class="e" d="M511.0,188.0 L529.0,188.0" marker-end="url(#ah-b1)"/>
<rect class="lblbg" x="508.9" y="174.0" width="22.2" height="12" rx="3"/>
<text class="lbl" x="520.0" y="183.0" text-anchor="middle">≤50</text>
<path class="e" d="M453.0,217.0 L453.0,280.0 L529.0,280.0" marker-end="url(#ah-b1)"/>
<rect class="lblbg" x="455.0" y="239.5" width="38.4" height="12" rx="3"/>
<text class="lbl" x="457.0" y="248.5" text-anchor="start">51–150</text>
<path class="e" d="M453.0,217.0 L453.0,372.0 L529.0,372.0" marker-end="url(#ah-b1)"/>
<rect class="lblbg" x="455.0" y="285.5" width="27.6" height="12" rx="3"/>
<text class="lbl" x="457.0" y="294.5" text-anchor="start">&gt;150</text>
<path class="e" d="M645.0,188.0 L663.0,188.0" marker-end="url(#ah-b1)"/>
<path class="e" d="M645.0,280.0 L654.0,280.0 L654.0,188.0 L663.0,188.0" marker-end="url(#ah-b1)"/>
<path class="e" d="M645.0,372.0 L654.0,372.0 L654.0,188.0 L663.0,188.0" marker-end="url(#ah-b1)"/>
<path class="e info" d="M721.0,163.0 L721.0,125.0" marker-end="url(#ah-b1)"/>
<path class="e" d="M779.0,96.0 L788.0,96.0 L788.0,188.0 L797.0,188.0" marker-end="url(#ah-b1)"/>
<rect class="lblbg" x="764.3" y="82.0" width="38.4" height="12" rx="3"/>
<text class="lbl" x="783.5" y="91.0" text-anchor="middle">Đồng ý</text>
<path class="e" d="M855.0,213.0 L855.0,439.0" marker-end="url(#ah-b1)"/>
<rect class="lblbg" x="857.0" y="317.0" width="33.0" height="12" rx="3"/>
<text class="lbl" x="859.0" y="326.0" text-anchor="start">R1–R3</text>
<path class="e" d="M913.0,188.0 L989.0,188.0 L989.0,531.0" marker-end="url(#ah-b1)"/>
<rect class="lblbg" x="942.6" y="174.0" width="16.8" height="12" rx="3"/>
<text class="lbl" x="951.0" y="183.0" text-anchor="middle">R4</text>
<path class="e" d="M913.0,464.0 L1065.0,464.0" marker-end="url(#ah-b1)"/>
<path class="e" d="M1123.0,489.0 L1123.0,623.0" marker-end="url(#ah-b1)"/>
<path class="e" d="M1181.0,464.0 L1257.0,464.0 L1257.0,531.0" marker-end="url(#ah-b1)"/>
<path class="e" d="M913.0,188.0 L1199.0,188.0" marker-end="url(#ah-b1)"/>
<rect class="lblbg" x="1042.2" y="174.0" width="27.6" height="12" rx="3"/>
<text class="lbl" x="1056.0" y="183.0" text-anchor="middle">xong</text>
<path class="e" d="M1257.0,213.0 L1257.0,255.0" marker-end="url(#ah-b1)"/>
<rect class="n term" stroke="#8e8e93" x="127.0" y="71.0" width="116" height="50" rx="25.0"/>
<text class="t" x="185.0" y="94.0" text-anchor="middle" font-size="10.5" font-weight="600">Báo vấn đề</text>
<text class="t" x="185.0" y="106.5" text-anchor="middle" font-size="10.5">email · form · chat</text>
<rect class="n" stroke="#2f6fb0" x="127.0" y="163.0" width="116" height="50" rx="8"/>
<rect x="127.0" y="171.0" width="3" height="34" fill="#2f6fb0"/>
<text class="t" x="185.0" y="179.8" text-anchor="middle" font-size="10.5" font-weight="600">B1 Mở case</text>
<text class="t" x="185.0" y="192.2" text-anchor="middle" font-size="10.5">gán mã C1–C8</text>
<text class="t" x="185.0" y="204.8" text-anchor="middle" font-size="10.5">liên kết mã đơn</text>
<rect class="tag" x="215.0" y="156.0" width="34" height="14" rx="7"/>
<text class="tagt" x="232.0" y="166.5" text-anchor="middle">OPEN</text>
<rect class="n" stroke="#2f6fb0" x="261.0" y="163.0" width="116" height="50" rx="8"/>
<rect x="261.0" y="171.0" width="3" height="34" fill="#2f6fb0"/>
<text class="t" x="319.0" y="179.8" text-anchor="middle" font-size="10.5" font-weight="600">B2 Xin bằng chứng</text>
<text class="t" x="319.0" y="192.2" text-anchor="middle" font-size="10.5">nhãn kiện · ảnh lỗi</text>
<text class="t" x="319.0" y="204.8" text-anchor="middle" font-size="10.5">ảnh toàn món</text>
<rect class="n cust" stroke="#8e8e93" x="261.0" y="71.0" width="116" height="50" rx="8"/>
<text class="t" x="319.0" y="100.2" text-anchor="middle" font-size="10.5" font-weight="600">Gửi ảnh/video</text>
<path class="n" stroke="#2f6fb0" d="M453.0,159.0 L511.0,188.0 L453.0,217.0 L395.0,188.0 z"/>
<text class="t" x="453.0" y="186.0" text-anchor="middle" font-size="10">Mức</text>
<text class="t" x="453.0" y="198.0" text-anchor="middle" font-size="10">đền bù?</text>
<rect class="n term" stroke="#2f6fb0" x="529.0" y="163.0" width="116" height="50" rx="25.0"/>
<text class="t" x="587.0" y="186.0" text-anchor="middle" font-size="10.5" font-weight="600">≤ A$50</text>
<text class="t" x="587.0" y="198.5" text-anchor="middle" font-size="10.5">CX tự duyệt</text>
<rect class="n term" stroke="#6b5a45" x="529.0" y="255.0" width="116" height="50" rx="25.0"/>
<text class="t" x="587.0" y="278.0" text-anchor="middle" font-size="10.5" font-weight="600">A$51–150</text>
<text class="t" x="587.0" y="290.5" text-anchor="middle" font-size="10.5">OPS duyệt</text>
<rect class="n term" stroke="#1d1d1f" x="529.0" y="347.0" width="116" height="50" rx="25.0"/>
<text class="t" x="587.0" y="370.0" text-anchor="middle" font-size="10.5" font-weight="600">&gt; A$150 · 100%</text>
<text class="t" x="587.0" y="382.5" text-anchor="middle" font-size="10.5">CEO duyệt</text>
<rect class="n" stroke="#2f6fb0" x="663.0" y="163.0" width="116" height="50" rx="8"/>
<rect x="663.0" y="171.0" width="3" height="34" fill="#2f6fb0"/>
<text class="t" x="721.0" y="179.8" text-anchor="middle" font-size="10.5" font-weight="600">B4 Đề xuất</text>
<text class="t" x="721.0" y="192.2" text-anchor="middle" font-size="10.5">R1 sửa · R2 gửi bù</text>
<text class="t" x="721.0" y="204.8" text-anchor="middle" font-size="10.5">R3 đổi · R4 hoàn</text>
<path class="n" stroke="#8e8e93" d="M721.0,67.0 L779.0,96.0 L721.0,125.0 L663.0,96.0 z"/>
<text class="t" x="721.0" y="100.0" text-anchor="middle" font-size="10">Đồng ý?</text>
<rect class="n" stroke="#2f6fb0" x="797.0" y="163.0" width="116" height="50" rx="8"/>
<rect x="797.0" y="171.0" width="3" height="34" fill="#2f6fb0"/>
<text class="t" x="855.0" y="186.0" text-anchor="middle" font-size="10.5" font-weight="600">B5 Kích hoạt</text>
<text class="t" x="855.0" y="198.5" text-anchor="middle" font-size="10.5">thực thi · ghi case</text>
<rect class="n" stroke="#2e7d4f" x="797.0" y="439.0" width="116" height="50" rx="8"/>
<rect x="797.0" y="447.0" width="3" height="34" fill="#2e7d4f"/>
<text class="t" x="855.0" y="455.8" text-anchor="middle" font-size="10.5" font-weight="600">Gửi bù / đổi mới</text>
<text class="t" x="855.0" y="468.2" text-anchor="middle" font-size="10.5">hoặc đặt thu hồi</text>
<text class="t" x="855.0" y="480.8" text-anchor="middle" font-size="10.5">(→ SOP-B2)</text>
<rect class="n" stroke="#7a4fa3" x="931.0" y="531.0" width="116" height="50" rx="8"/>
<rect x="931.0" y="539.0" width="3" height="34" fill="#7a4fa3"/>
<text class="t" x="989.0" y="547.8" text-anchor="middle" font-size="10.5" font-weight="600">Hoàn tiền</text>
<text class="t" x="989.0" y="560.2" text-anchor="middle" font-size="10.5">đúng số đã duyệt</text>
<text class="t" x="989.0" y="572.8" text-anchor="middle" font-size="10.5">cổng gốc</text>
<rect class="n" stroke="#2e7d4f" x="1065.0" y="439.0" width="116" height="50" rx="8"/>
<rect x="1065.0" y="447.0" width="3" height="34" fill="#2e7d4f"/>
<text class="t" x="1123.0" y="455.8" text-anchor="middle" font-size="10.5" font-weight="600">B6 Claim NCC</text>
<text class="t" x="1123.0" y="468.2" text-anchor="middle" font-size="10.5">/ hãng giao</text>
<text class="t" x="1123.0" y="480.8" text-anchor="middle" font-size="10.5">/ bảo hiểm</text>
<rect class="n ext" stroke="#a1a1a6" x="1065.0" y="623.0" width="116" height="50" rx="8"/>
<text class="t" x="1123.0" y="646.0" text-anchor="middle" font-size="10.5" font-weight="600">Bồi hoàn</text>
<text class="t" x="1123.0" y="658.5" text-anchor="middle" font-size="10.5">hoặc gửi bù</text>
<rect class="n term" stroke="#2f6fb0" x="1199.0" y="163.0" width="116" height="50" rx="25.0"/>
<text class="t" x="1257.0" y="186.0" text-anchor="middle" font-size="10.5" font-weight="600">B7 Đóng case</text>
<text class="t" x="1257.0" y="198.5" text-anchor="middle" font-size="10.5">mã nguyên nhân gốc</text>
<rect class="tag" x="1275.0" y="156.0" width="46" height="14" rx="7"/>
<text class="tagt" x="1298.0" y="166.5" text-anchor="middle">CLOSED</text>
<rect class="n" stroke="#6b5a45" x="1199.0" y="255.0" width="116" height="50" rx="8"/>
<rect x="1199.0" y="263.0" width="3" height="34" fill="#6b5a45"/>
<text class="t" x="1257.0" y="271.8" text-anchor="middle" font-size="10.5" font-weight="600">Review tuần</text>
<text class="t" x="1257.0" y="284.2" text-anchor="middle" font-size="10.5">lỗi lặp 2 lần/tháng</text>
<text class="t" x="1257.0" y="296.8" text-anchor="middle" font-size="10.5">→ tắt mã / NCC</text>
<rect class="n" stroke="#7a4fa3" x="1199.0" y="531.0" width="116" height="50" rx="8"/>
<rect x="1199.0" y="539.0" width="3" height="34" fill="#7a4fa3"/>
<text class="t" x="1257.0" y="554.0" text-anchor="middle" font-size="10.5" font-weight="600">Sổ ngoại lệ</text>
<text class="t" x="1257.0" y="566.5" text-anchor="middle" font-size="10.5">chi phí − thu hồi</text>
<rect class="x" x="661.0" y="42.0" width="120.0" height="14" rx="7"/>
<text class="xt" x="721.0" y="52.5" text-anchor="middle">Không → OPS gọi điện</text>
<rect class="x" x="106.5" y="217.0" width="157.1" height="14" rx="7"/>
<text class="xt" x="185.0" y="227.5" text-anchor="middle">Nhắc chargeback → gọi ≤ 24h</text>
</svg>